<svg width="136" height="50" viewBox="0 0 136 50" fill="none" xmlns="http://www.w3.org/2000/svg">
<path fill-rule="evenodd" clip-rule="evenodd" d="M14.3636 49.3367L13.4335 49.3367L9.71348 49.3367C9.40347 49.3367 8.99013 49.3367 8.5768 49.2333L7.44011 49.2333C7.02677 49.2333 6.40676 49.0267 6.09676 48.51C5.78675 47.9933 5.78675 47.58 5.78675 47.1666L5.78675 46.03C5.78675 45.72 5.68342 45.4099 5.58008 45.0999C5.27008 44.5833 4.96007 44.4799 4.4434 44.7899C4.13339 44.9966 3.82339 45.2033 3.51339 45.5133C3.20338 45.8233 2.79004 46.1333 2.17003 46.2366C1.55002 46.34 0.826677 46.03 0.516674 45.5133C0.103334 44.9966 -1.94428e-06 44.4799 -1.9217e-06 43.9633C0.194903 39.5454 0.185576 35.4544 0.177462 31.8955C0.172671 29.7939 0.168303 27.8778 0.20667 26.1897L0.20667 24.6396L0.20667 23.0896C0.168304 21.4015 0.172671 19.4854 0.177463 17.3837C0.185577 13.8249 0.194904 9.73384 -2.3237e-07 5.31601L1.67498e-06 5.31599C0.103338 4.79932 0.206674 4.28265 0.516676 3.76598C0.826679 3.24931 1.55002 2.9393 2.17003 3.04264C2.79004 3.14597 3.20338 3.45598 3.51339 3.76598C3.69462 3.9019 3.83611 4.01796 3.96401 4.12286C4.12782 4.25721 4.26932 4.37327 4.4434 4.48933C4.96008 4.90267 5.27008 4.696 5.58009 4.17932L5.58009 4.17931C5.68342 3.86931 5.78676 3.55931 5.78676 3.24931L5.78676 2.11262C5.78676 1.69928 5.78675 1.28594 6.09676 0.76927C6.40676 0.149261 7.02678 0.0459257 7.44011 0.0459257C7.7246 -0.0251958 8.00909 0.00158318 8.25988 0.0251909C8.37348 0.0358836 8.48016 0.0459257 8.5768 0.0459258L9.61015 0.0459258L13.3302 0.045926L14.2602 0.045926L15.1902 0.045926L18.9103 0.0459262L19.9436 0.0459262L21.0803 0.0459263C21.4937 0.0459263 22.0103 0.252596 22.4237 0.769271C22.7337 1.28595 22.7337 1.69928 22.7337 2.11262L22.7337 3.24931C22.7337 3.55931 22.7337 3.86932 22.837 4.17932C23.147 4.696 23.457 4.90267 23.9737 4.48933C24.2837 4.38599 24.5937 4.07599 24.9037 3.76598L24.9037 3.76598C25.2137 3.45598 25.6271 3.14597 26.2471 3.04264C26.8671 2.9393 27.5904 3.24931 27.9004 3.76598C28.3138 4.28266 28.4171 4.79933 28.4171 5.31601C28.1657 11.0134 28.1861 16.1674 28.2028 20.3923C28.2067 21.378 28.2104 22.3132 28.2104 23.1929C28.1071 23.7096 28.1071 24.2263 28.1071 24.743C28.2104 25.2596 28.2104 25.7763 28.2104 26.293C28.3036 28.3433 28.3338 30.7298 28.3672 33.3768C28.408 36.5996 28.4536 40.2085 28.6238 44.0666C28.5204 44.5833 28.4171 45.0999 28.1071 45.6166C27.7971 46.1333 27.0737 46.4433 26.4537 46.34C25.8337 46.2366 25.4204 45.9266 25.1104 45.6166C24.9292 45.4807 24.7877 45.3646 24.6598 45.2597C24.496 45.1254 24.3545 45.0093 24.1804 44.8933C23.6637 44.4799 23.3537 44.6866 23.0437 45.2033C22.9403 45.5133 22.837 45.8233 22.837 46.1333L22.837 47.27C22.837 47.6833 22.837 48.0967 22.527 48.6133C22.217 49.2333 21.597 49.3367 21.1837 49.3367C20.8992 49.4078 20.6147 49.381 20.3639 49.3574C20.2503 49.3467 20.1436 49.3367 20.047 49.3367L19.0136 49.3367L15.2936 49.3367L14.3636 49.3367ZM1.42145 29.0484C1.54418 33.224 1.6961 38.393 1.44669 43.9633C1.44669 44.7899 1.86003 45.3066 2.3767 45.0999C2.58337 45.0999 2.89338 44.8933 3.20338 44.6866L3.30672 44.5833C2.99671 42.7232 2.79004 34.4565 2.79004 24.5363C2.79004 14.9262 2.89338 6.86603 3.20338 4.696C3.20338 4.59266 3.10005 4.59266 3.10005 4.59266C2.79004 4.38599 2.48004 4.17932 2.27337 4.17932C1.86003 4.07599 1.44669 4.59266 1.44669 5.31601C1.69611 10.8863 1.54418 16.0553 1.42145 20.2309C1.39164 21.2453 1.36355 22.201 1.34335 23.0896L1.34335 24.6396L1.34335 26.1897C1.36355 27.0783 1.39164 28.034 1.42145 29.0484ZM27.1771 23.0896C27.0737 18.6462 26.9704 12.2394 27.2804 5.41934C27.2804 4.59266 26.8671 4.07599 26.4537 4.17932C26.4153 4.19856 26.3732 4.21779 26.3283 4.23836C26.1317 4.32829 25.8794 4.4437 25.6271 4.696C25.5237 4.79933 25.3171 5.006 25.1104 5.10934C25.3171 7.0727 25.5237 15.0295 25.5237 24.6396C25.5237 34.2498 25.4204 42.3099 25.1104 44.2733C25.2314 44.3943 25.3525 44.4799 25.4528 44.5508C25.5237 44.601 25.5843 44.6438 25.6271 44.6866C25.9371 44.8933 26.2471 45.0999 26.4537 45.0999C26.8671 45.2033 27.2804 44.6866 27.2804 43.9633C26.9704 37.0398 27.0737 30.7364 27.1771 26.1897L27.1771 24.6396L27.1771 23.0896ZM11.4702 44.1699L12.7102 44.4799C13.3302 44.5833 13.9502 44.6866 14.5702 44.6866C15.1902 44.6866 15.9136 44.5833 16.5336 44.4799L17.7736 44.1699C18.2903 44.0666 18.6003 43.8599 18.4969 43.8599L18.3936 43.7566C18.3508 43.7566 18.2903 43.7389 18.2194 43.7181C18.1191 43.6887 17.998 43.6533 17.8769 43.6533C17.7658 43.6255 17.6249 43.6052 17.4661 43.5823C17.0341 43.5201 16.4703 43.4388 16.0169 43.1366C15.7069 42.8266 15.3969 42.5166 15.2936 42.1032C15.0869 41.6899 15.1902 41.1732 15.5002 40.7599C15.9661 40.2164 16.4903 40.0229 16.8975 39.8726C17.0323 39.8229 17.1542 39.7779 17.2569 39.7265C17.6703 39.5199 17.8769 39.1065 17.9803 38.5898C18.0836 38.0732 17.9803 37.6598 17.5669 37.3498C17.4105 37.1934 17.2392 37.0517 17.0588 36.9025C16.7625 36.6574 16.4414 36.3918 16.1202 36.0065C15.9136 35.6965 15.7069 35.3865 15.6036 34.9731C15.6036 34.5598 15.7069 34.0431 15.9136 33.7331C16.3269 33.1544 16.8725 32.9726 17.3388 32.8171C17.4553 32.7783 17.5669 32.7411 17.6703 32.6998C17.8769 32.5964 18.1869 32.4931 18.1869 32.4931L18.1869 32.3898C18.0836 32.0797 17.8769 31.9764 17.3603 31.9764L16.6369 31.9764C16.2236 31.9764 15.8102 31.8731 15.7069 31.4597L15.7069 30.9431L15.7069 30.6331C15.7069 30.5297 15.7327 30.4264 15.7586 30.3231C15.7844 30.2197 15.8102 30.1164 15.8102 30.013L15.8102 29.703L14.8802 29.703C14.3636 29.703 13.8469 29.703 13.3302 29.5997C13.4335 29.703 13.4335 29.9097 13.4335 30.013C13.4335 30.1164 13.4594 30.2197 13.4852 30.3231C13.511 30.4264 13.5369 30.5297 13.5369 30.6331L13.5369 30.9431C13.5369 31.0163 13.5498 31.0765 13.562 31.133C13.5841 31.2359 13.6036 31.3263 13.5369 31.4597C13.4335 31.7697 13.0202 31.9764 12.6069 31.9764L11.8835 31.9764C11.4702 31.9764 11.1602 32.0797 11.0568 32.3898C10.9535 32.4931 11.0568 32.4931 11.0568 32.4931C11.0568 32.4931 11.2635 32.5964 11.5735 32.6998C11.6768 32.7411 11.7884 32.7783 11.905 32.8171C12.3713 32.9726 12.9169 33.1544 13.3302 33.7331C13.6402 34.0431 13.7435 34.5598 13.6402 34.9731C13.5369 35.3865 13.3302 35.6965 13.1235 36.0065C12.8024 36.3918 12.4813 36.6574 12.185 36.9025C12.0046 37.0517 11.8333 37.1934 11.6768 37.3498C11.3668 37.6598 11.1602 38.0732 11.2635 38.5898C11.2635 39.1065 11.5735 39.5199 11.9868 39.7265C12.0896 39.7779 12.2115 39.8229 12.3462 39.8726C12.7534 40.0229 13.2777 40.2164 13.7435 40.7599C14.0535 41.1732 14.0535 41.6899 13.9502 42.1032C13.8469 42.5166 13.5369 42.9299 13.2269 43.1366C12.6069 43.6533 11.7802 43.6533 11.3668 43.6533L11.3668 43.6533C11.0568 43.6533 10.9535 43.6533 10.8502 43.7566C10.7468 43.7566 10.7468 43.8599 10.7468 43.8599C10.7468 43.8599 11.0568 44.0666 11.4702 44.1699ZM11.7777 5.90364C12.2097 5.96588 12.7735 6.04712 13.2269 6.34936C13.5369 6.55602 13.8469 6.86603 13.9502 7.27937C14.0535 7.69271 14.0535 8.20938 13.9502 8.72606C13.4843 9.26958 12.9601 9.46304 12.5529 9.61332C12.4182 9.66304 12.2963 9.70803 12.1935 9.75941C11.7802 9.96608 11.5735 10.3794 11.4702 10.8961C11.3668 11.4128 11.4702 11.8261 11.8835 12.1361C12.04 12.2926 12.2112 12.4342 12.3917 12.5835C12.688 12.8285 13.0091 13.0941 13.3302 13.4795C13.5369 13.7895 13.7435 14.0995 13.8469 14.5128C13.8469 14.9262 13.7435 15.4428 13.5369 15.7528C13.1235 16.3315 12.5779 16.5134 12.1117 16.6688C11.9951 16.7076 11.8835 16.7448 11.7802 16.7862C11.5735 16.8895 11.2635 16.9929 11.2635 16.9929L11.2635 17.0962C11.3668 17.4062 11.5735 17.5095 12.0902 17.5095L12.8135 17.5095C13.2269 17.5095 13.6402 17.6129 13.7435 18.0262L13.7435 18.5429L13.7435 18.8529C13.7435 18.9562 13.7177 19.0595 13.6919 19.1629C13.666 19.2662 13.6402 19.3696 13.6402 19.4729C13.5369 19.6796 13.5369 19.7829 13.5369 19.9896C14.0535 19.8862 14.5702 19.8862 15.0869 19.8862L15.0869 19.8862L16.0169 19.8862C15.9136 19.7829 15.9136 19.5762 15.9136 19.4729C15.9136 19.3696 15.8877 19.2662 15.8619 19.1629C15.8361 19.0595 15.8102 18.9562 15.8102 18.8529L15.8102 18.5429C15.8102 18.4697 15.7973 18.4094 15.7851 18.353C15.763 18.25 15.7435 18.1597 15.8102 18.0262C15.9136 17.7162 16.3269 17.5095 16.7403 17.5095L17.4636 17.5095C17.8769 17.5095 18.1869 17.4062 18.2903 17.0962C18.3936 16.9929 18.2903 16.9929 18.2903 16.9929C18.2903 16.9929 18.0836 16.8895 17.7736 16.7862C17.6703 16.7448 17.5587 16.7076 17.4421 16.6688C16.9759 16.5134 16.4303 16.3315 16.0169 15.7528C15.7069 15.4428 15.6036 14.9262 15.7069 14.5128C15.8102 14.0995 16.0169 13.7895 16.2236 13.4795C16.5447 13.0941 16.8658 12.8285 17.1621 12.5835C17.3426 12.4342 17.5138 12.2926 17.6703 12.1361C17.9803 11.8261 18.1869 11.4128 18.0836 10.8961C18.0836 10.3794 17.7736 9.96608 17.3603 9.75941C17.2575 9.70803 17.1356 9.66304 17.0009 9.61332C16.5937 9.46304 16.0695 9.26958 15.6036 8.72606C15.2936 8.31272 15.2936 7.79604 15.3969 7.3827C15.5002 6.96936 15.8102 6.55602 16.1202 6.34936C16.7403 5.83268 17.5669 5.83268 17.9803 5.83268C18.2903 5.83268 18.3936 5.83268 18.4969 5.72935C18.6003 5.72935 18.6003 5.62601 18.6003 5.62601C18.6003 5.62601 18.2903 5.41934 17.8769 5.31601L16.6369 5.006C16.545 4.99288 16.4548 4.97975 16.3661 4.96684C15.7561 4.87808 15.2148 4.79933 14.6736 4.79933C14.0535 4.79933 13.3302 4.90267 12.7102 5.006L11.4702 5.31601C10.9535 5.41934 10.6435 5.62601 10.7468 5.62601L10.8502 5.72935C10.893 5.72935 10.9535 5.74707 11.0244 5.76785C11.1247 5.79722 11.2458 5.83268 11.3668 5.83268C11.4779 5.86046 11.6189 5.88077 11.7777 5.90364ZM20.9531 26.0076C20.6778 26.5871 20.1557 27.0817 19.6336 27.4297C18.4486 28.2198 17.1691 28.5379 16.3364 28.745C16.2978 28.7546 16.2602 28.7639 16.2236 28.7731C15.8499 28.8665 15.5396 28.9177 15.3117 28.9553C15.0354 29.0008 14.8802 29.0264 14.8802 29.0831C14.8802 28.9797 14.3636 28.8764 13.3302 28.7731C13.2936 28.7639 13.256 28.7546 13.2174 28.745C12.3847 28.5379 11.1053 28.2198 9.92017 27.4297C9.40349 27.0164 8.78348 26.3964 8.47348 25.673C8.16347 24.9497 8.26681 24.0197 8.88682 23.2963C10.1268 21.7463 12.5035 21.0229 14.7769 21.0229C14.8112 21.0244 14.8456 21.0261 14.8799 21.0278C14.9145 21.026 14.949 21.0244 14.9836 21.0229C17.2569 21.0229 19.6336 21.7463 20.8737 23.2963C21.287 23.9163 21.4937 24.8463 21.1837 25.5696C21.119 25.7204 21.0409 25.8668 20.9531 26.0076Z" fill="white"/>
<path d="M52.7898 6.72424C54.2512 7.0231 55.3436 7.60658 56.0672 8.47468C56.7908 9.32855 57.1668 10.2394 57.1951 11.2071C57.1951 11.2213 57.1951 11.2355 57.1951 11.2498C57.1951 11.264 57.1951 11.2782 57.1951 11.2925C57.181 12.4594 56.6773 13.5268 55.6841 14.4945C54.7052 15.4622 53.2651 15.9461 51.364 15.9461L42.5108 15.9674C42.2271 15.9532 42.0071 15.8891 41.8511 15.7753C41.7092 15.6614 41.6312 15.5334 41.617 15.391C41.617 15.3768 41.617 15.3626 41.617 15.3484C41.617 15.3484 41.617 15.3412 41.617 15.327C41.617 15.1847 41.695 15.0495 41.8511 14.9214C42.0213 14.7791 42.2625 14.7079 42.5747 14.7079L42.7449 14.5585V1.45158C42.4328 1.45158 42.1845 1.38754 42.0001 1.25946C41.8298 1.13138 41.7305 0.989069 41.7021 0.832525C41.6879 0.818294 41.6808 0.804063 41.6808 0.789832C41.6808 0.761369 41.6808 0.740022 41.6808 0.725791C41.6808 0.583479 41.7447 0.462514 41.8724 0.362895C42.0142 0.249046 42.22 0.192121 42.4895 0.192121H51.896C53.4567 0.192121 54.6413 0.540786 55.45 1.23811C56.2587 1.92121 56.6631 2.68258 56.6631 3.52222C56.6631 4.24802 56.3439 4.924 55.7054 5.55017C55.067 6.16211 54.0951 6.55347 52.7898 6.72424ZM50.6404 13.9181V8.3466C50.6404 8.07621 50.5127 7.87697 50.2573 7.74889C50.0161 7.62081 49.7466 7.55677 49.4486 7.55677C49.1507 7.55677 48.8811 7.62793 48.6399 7.77024C48.3987 7.89832 48.2781 8.09044 48.2781 8.3466C48.2781 8.40353 48.2994 8.45334 48.342 8.49603C48.3845 8.53872 48.4342 8.58142 48.491 8.62411C48.491 8.62411 48.491 8.63123 48.491 8.64546C48.5051 8.64546 48.5122 8.64546 48.5122 8.64546C48.5832 8.68815 48.6399 8.73796 48.6825 8.79489C48.7392 8.83758 48.7676 8.8945 48.7676 8.96566V13.2564C48.7676 13.3133 48.7392 13.3702 48.6825 13.4271C48.6399 13.4841 48.5903 13.5339 48.5335 13.5766C48.5193 13.5766 48.5051 13.5837 48.491 13.5979C48.4342 13.6406 48.3845 13.6833 48.342 13.726C48.2994 13.7687 48.2781 13.8185 48.2781 13.8754C48.2781 14.1458 48.3987 14.3451 48.6399 14.4731C48.8811 14.587 49.1436 14.6439 49.4273 14.6439C49.4415 14.6439 49.4486 14.6439 49.4486 14.6439C49.4628 14.6439 49.477 14.6439 49.4912 14.6439C49.7749 14.6297 50.0374 14.5585 50.2786 14.4304C50.5198 14.3024 50.6404 14.1316 50.6404 13.9181ZM50.6404 5.46478V2.26276C50.6404 1.99237 50.5127 1.79313 50.2573 1.66505C50.0161 1.53697 49.7466 1.47293 49.4486 1.47293C49.1507 1.47293 48.8811 1.54409 48.6399 1.6864C48.3987 1.81448 48.2781 2.0066 48.2781 2.26276C48.2781 2.31969 48.2994 2.3695 48.342 2.41219C48.3845 2.45488 48.4342 2.49758 48.491 2.54027C48.5051 2.54027 48.5122 2.54027 48.5122 2.54027C48.5122 2.54027 48.5193 2.54739 48.5335 2.56162C48.5903 2.60431 48.6399 2.647 48.6825 2.6897C48.7392 2.73239 48.7676 2.78932 48.7676 2.86047V4.80303C48.7676 4.85996 48.7463 4.90977 48.7038 4.95246C48.6612 4.99515 48.6115 5.03785 48.5548 5.08054C48.5548 5.08054 48.5477 5.08766 48.5335 5.10189C48.4626 5.14458 48.3987 5.19439 48.342 5.25131C48.2994 5.29401 48.2781 5.35093 48.2781 5.42209C48.2781 5.69248 48.3987 5.89172 48.6399 6.0198C48.8811 6.13365 49.1436 6.19057 49.4273 6.19057C49.4415 6.19057 49.4486 6.19057 49.4486 6.19057C49.4628 6.19057 49.477 6.19057 49.4912 6.19057C49.7749 6.17634 50.0374 6.10519 50.2786 5.97711C50.5198 5.84903 50.6404 5.67825 50.6404 5.46478Z" fill="white"/>
<path d="M73.703 15.3484C73.703 15.4907 73.6108 15.6187 73.4264 15.7326C73.2561 15.8607 73.0646 15.9318 72.8518 15.9461C72.8376 15.9461 72.8234 15.9461 72.8092 15.9461C72.8092 15.9461 72.8021 15.9461 72.7879 15.9461L66.5311 15.9674C66.5311 15.9532 66.4815 15.9247 66.3822 15.882C66.297 15.8536 66.1977 15.818 66.0842 15.7753C65.9565 15.7184 65.843 15.6472 65.7437 15.5618C65.6586 15.4907 65.616 15.4124 65.616 15.327C65.616 15.1705 65.7011 15.0353 65.8714 14.9214C66.0558 14.7933 66.2757 14.7293 66.5311 14.7293H67.0419L66.595 12.8294H62.8068L62.3174 14.7293H62.8281C63.0693 14.7293 63.2821 14.7862 63.4666 14.9001C63.651 15.0139 63.7432 15.1562 63.7432 15.327C63.7432 15.4836 63.651 15.6259 63.4666 15.7539C63.2821 15.882 63.0693 15.9461 62.8281 15.9461L59.6146 15.9674C59.572 15.9532 59.5082 15.9318 59.4231 15.9034C59.3521 15.8891 59.2741 15.8607 59.189 15.818C59.0613 15.7611 58.9478 15.6899 58.8485 15.6045C58.7491 15.5191 58.6995 15.4266 58.6995 15.327C58.6995 15.1562 58.7917 15.0139 58.9761 14.9001C59.1606 14.7862 59.3734 14.7293 59.6146 14.7293H60.1466L63.5091 1.40889H62.7217C62.4663 1.40889 62.2464 1.35196 62.062 1.23811C61.8917 1.11003 61.8066 0.960606 61.8066 0.789832C61.8066 0.619057 61.8917 0.476745 62.062 0.362895C62.2464 0.249046 62.4663 0.192121 62.7217 0.192121H68.489C68.7444 0.192121 68.9572 0.249046 69.1275 0.362895C69.3119 0.476745 69.4041 0.619057 69.4041 0.789832L72.5964 14.7293H72.7879C73.0433 14.7293 73.2561 14.7933 73.4264 14.9214C73.6108 15.0353 73.703 15.1705 73.703 15.327V15.3484ZM66.3183 11.6981L65.084 6.29731C65.0698 6.21192 65.0272 6.14788 64.9563 6.10519C64.8995 6.06249 64.8357 6.04115 64.7647 6.04115C64.7506 6.04115 64.7364 6.04115 64.7222 6.04115C64.7222 6.04115 64.7151 6.04826 64.7009 6.06249C64.6442 6.07672 64.5874 6.10519 64.5307 6.14788C64.4881 6.19057 64.4597 6.24038 64.4455 6.29731L63.0835 11.6981H66.3183Z" fill="white"/>
<path d="M88.3792 15.3057C88.3792 15.4195 88.3225 15.5262 88.209 15.6259C88.0955 15.7255 87.9678 15.8038 87.8259 15.8607C87.755 15.8891 87.6911 15.9105 87.6344 15.9247C87.5776 15.9389 87.5209 15.9461 87.4641 15.9461C86.7689 15.9461 86.0808 15.9461 85.3998 15.9461C84.7188 15.9461 84.0378 15.9461 83.3567 15.9461C82.8034 15.9461 82.4204 15.7326 82.2075 15.3057C81.9947 14.893 81.867 14.4304 81.8245 13.9181C81.8103 13.7616 81.7961 13.605 81.7819 13.4485C81.7819 13.2919 81.7819 13.1425 81.7819 13.0002C81.7819 12.9148 81.7819 12.8294 81.7819 12.744C81.7819 12.6587 81.789 12.5804 81.8032 12.5092C81.8032 12.4381 81.8032 12.374 81.8032 12.3171C81.8032 12.246 81.8032 12.1819 81.8032 12.125C81.8032 11.5273 81.6117 11.143 81.2286 10.9723C80.8597 10.8015 80.3418 10.7232 79.675 10.7374V14.5585L79.9091 14.6866C80.1503 14.6866 80.3631 14.7506 80.5476 14.8787C80.732 15.0068 80.8242 15.142 80.8242 15.2843C80.8242 15.4693 80.732 15.6259 80.5476 15.7539C80.3631 15.882 80.1503 15.9461 79.9091 15.9461L74.1844 15.9674C73.9148 15.9532 73.6949 15.882 73.5246 15.7539C73.3544 15.6259 73.2693 15.4693 73.2693 15.2843C73.2693 15.142 73.3544 15.0068 73.5246 14.8787C73.6949 14.7506 73.9148 14.6866 74.1844 14.6866L74.3546 14.5585V1.55832C74.2979 1.52985 74.2411 1.50139 74.1844 1.47293C74.1276 1.44447 74.0638 1.42312 73.9928 1.40889C73.9786 1.39466 73.9574 1.38754 73.929 1.38754C73.9006 1.37331 73.8722 1.3662 73.8439 1.3662C73.6878 1.30927 73.5459 1.25235 73.4182 1.19542C73.3047 1.12427 73.248 0.989069 73.248 0.789832C73.248 0.619057 73.3331 0.476745 73.5034 0.362895C73.6736 0.234815 73.8864 0.170775 74.1418 0.170775H82.0586C83.8037 0.170775 85.1728 0.704445 86.1659 1.77179C87.1733 2.83913 87.7195 4.0132 87.8046 5.29401C87.8188 5.36516 87.8259 5.43632 87.8259 5.50748C87.8259 5.5644 87.8259 5.62844 87.8259 5.6996C87.8259 6.73848 87.4925 7.69908 86.8257 8.58142C86.173 9.46375 85.1373 10.033 83.7185 10.2892V10.4386L84.6336 10.6307C84.7188 10.6449 84.8039 10.6663 84.889 10.6948C84.9883 10.7232 85.0877 10.7588 85.187 10.8015C85.6694 10.9723 86.1163 11.2213 86.5277 11.5486C86.9392 11.8617 87.1803 12.189 87.2513 12.5306C87.2655 12.559 87.2726 12.5875 87.2726 12.616C87.2726 12.6444 87.2726 12.6729 87.2726 12.7014C87.2726 12.7298 87.2655 12.7796 87.2513 12.8508C87.2513 12.9219 87.2513 13.0073 87.2513 13.1069C87.2513 13.1923 87.2442 13.2848 87.23 13.3844C87.23 13.4698 87.23 13.5623 87.23 13.662C87.23 13.6762 87.23 13.6904 87.23 13.7046C87.23 13.7189 87.23 13.7331 87.23 13.7473C87.23 13.975 87.2442 14.1814 87.2726 14.3664C87.3009 14.5514 87.3648 14.6581 87.4641 14.6866C87.4925 14.7008 87.5138 14.7151 87.5279 14.7293C87.5563 14.7293 87.5847 14.7293 87.6131 14.7293C87.8117 14.8005 87.989 14.8787 88.1451 14.9641C88.3012 15.0495 88.3792 15.1562 88.3792 15.2843V15.3057ZM81.6542 8.64546V2.41219C81.6542 2.1418 81.5265 1.94256 81.2711 1.81448C81.03 1.6864 80.7604 1.62236 80.4624 1.62236C80.1645 1.62236 79.8949 1.69351 79.6537 1.83582C79.4126 1.96391 79.292 2.15603 79.292 2.41219C79.292 2.46911 79.3132 2.51892 79.3558 2.56162C79.3984 2.60431 79.448 2.647 79.5048 2.6897C79.5048 2.6897 79.5048 2.69681 79.5048 2.71104C79.519 2.71104 79.5261 2.71104 79.5261 2.71104C79.597 2.75374 79.6537 2.80355 79.6963 2.86047C79.7531 2.90317 79.7814 2.96009 79.7814 3.03125V7.96236C79.7814 8.01928 79.7531 8.07621 79.6963 8.13313C79.6537 8.19006 79.6041 8.23987 79.5473 8.28256C79.4764 8.32526 79.4126 8.37506 79.3558 8.43199C79.3132 8.47468 79.292 8.53161 79.292 8.60276C79.292 8.87316 79.4126 9.07239 79.6537 9.20047C79.8949 9.31432 80.1574 9.37125 80.4412 9.37125C80.4554 9.37125 80.4624 9.37125 80.4624 9.37125C80.4766 9.37125 80.4908 9.37125 80.505 9.37125C80.7888 9.35702 81.0512 9.28586 81.2924 9.15778C81.5336 9.0297 81.6542 8.85892 81.6542 8.64546Z" fill="white"/>
<path d="M101.089 6.72424C102.551 7.0231 103.643 7.60658 104.367 8.47468C105.09 9.32855 105.466 10.2394 105.494 11.2071C105.494 11.2213 105.494 11.2355 105.494 11.2498C105.494 11.264 105.494 11.2782 105.494 11.2925C105.48 12.4594 104.977 13.5268 103.983 14.4945C103.005 15.4622 101.564 15.9461 99.6633 15.9461L90.8101 15.9674C90.5264 15.9532 90.3065 15.8891 90.1504 15.7753C90.0085 15.6614 89.9305 15.5334 89.9163 15.391C89.9163 15.3768 89.9163 15.3626 89.9163 15.3484C89.9163 15.3484 89.9163 15.3412 89.9163 15.327C89.9163 15.1847 89.9943 15.0495 90.1504 14.9214C90.3207 14.7791 90.5619 14.7079 90.874 14.7079L91.0442 14.5585V1.45158C90.7321 1.45158 90.4838 1.38754 90.2994 1.25946C90.1291 1.13138 90.0298 0.989069 90.0014 0.832525C89.9873 0.818294 89.9802 0.804063 89.9802 0.789832C89.9802 0.761369 89.9802 0.740022 89.9802 0.725791C89.9802 0.583479 90.044 0.462514 90.1717 0.362895C90.3136 0.249046 90.5193 0.192121 90.7889 0.192121H100.195C101.756 0.192121 102.941 0.540786 103.749 1.23811C104.558 1.92121 104.962 2.68258 104.962 3.52222C104.962 4.24802 104.643 4.924 104.005 5.55017C103.366 6.16211 102.394 6.55347 101.089 6.72424ZM98.9397 13.9181V8.3466C98.9397 8.07621 98.812 7.87697 98.5567 7.74889C98.3155 7.62081 98.0459 7.55677 97.748 7.55677C97.45 7.55677 97.1804 7.62793 96.9392 7.77024C96.6981 7.89832 96.5775 8.09044 96.5775 8.3466C96.5775 8.40353 96.5987 8.45334 96.6413 8.49603C96.6839 8.53872 96.7335 8.58142 96.7903 8.62411C96.7903 8.62411 96.7903 8.63123 96.7903 8.64546C96.8045 8.64546 96.8116 8.64546 96.8116 8.64546C96.8825 8.68815 96.9392 8.73796 96.9818 8.79489C97.0386 8.83758 97.0669 8.8945 97.0669 8.96566V13.2564C97.0669 13.3133 97.0386 13.3702 96.9818 13.4271C96.9392 13.4841 96.8896 13.5339 96.8328 13.5766C96.8187 13.5766 96.8045 13.5837 96.7903 13.5979C96.7335 13.6406 96.6839 13.6833 96.6413 13.726C96.5987 13.7687 96.5775 13.8185 96.5775 13.8754C96.5775 14.1458 96.6981 14.3451 96.9392 14.4731C97.1804 14.587 97.4429 14.6439 97.7267 14.6439C97.7409 14.6439 97.748 14.6439 97.748 14.6439C97.7621 14.6439 97.7763 14.6439 97.7905 14.6439C98.0743 14.6297 98.3367 14.5585 98.5779 14.4304C98.8191 14.3024 98.9397 14.1316 98.9397 13.9181ZM98.9397 5.46478V2.26276C98.9397 1.99237 98.812 1.79313 98.5567 1.66505C98.3155 1.53697 98.0459 1.47293 97.748 1.47293C97.45 1.47293 97.1804 1.54409 96.9392 1.6864C96.6981 1.81448 96.5775 2.0066 96.5775 2.26276C96.5775 2.31969 96.5987 2.3695 96.6413 2.41219C96.6839 2.45488 96.7335 2.49758 96.7903 2.54027C96.8045 2.54027 96.8116 2.54027 96.8116 2.54027C96.8116 2.54027 96.8187 2.54739 96.8328 2.56162C96.8896 2.60431 96.9392 2.647 96.9818 2.6897C97.0386 2.73239 97.0669 2.78932 97.0669 2.86047V4.80303C97.0669 4.85996 97.0457 4.90977 97.0031 4.95246C96.9605 4.99515 96.9109 5.03785 96.8541 5.08054C96.8541 5.08054 96.847 5.08766 96.8328 5.10189C96.7619 5.14458 96.6981 5.19439 96.6413 5.25131C96.5987 5.29401 96.5775 5.35093 96.5775 5.42209C96.5775 5.69248 96.6981 5.89172 96.9392 6.0198C97.1804 6.13365 97.4429 6.19057 97.7267 6.19057C97.7409 6.19057 97.748 6.19057 97.748 6.19057C97.7621 6.19057 97.7763 6.19057 97.7905 6.19057C98.0743 6.17634 98.3367 6.10519 98.5779 5.97711C98.8191 5.84903 98.9397 5.67825 98.9397 5.46478Z" fill="white"/>
<path d="M118.895 13.5766L118.491 15.3484C118.477 15.3768 118.463 15.4124 118.448 15.4551C118.448 15.512 118.441 15.5618 118.427 15.6045C118.37 15.7611 118.278 15.9034 118.15 16.0315C118.023 16.1595 117.838 16.2236 117.597 16.2236C117.469 16.2236 117.349 16.2165 117.235 16.2022C117.122 16.188 117.015 16.1666 116.916 16.1382C116.888 16.124 116.859 16.1097 116.831 16.0955C116.803 16.0955 116.774 16.0955 116.746 16.0955C116.604 16.067 116.455 16.0386 116.299 16.0101C116.157 15.9816 115.98 15.9674 115.767 15.9674L107.765 15.9888C107.765 15.9745 107.715 15.9461 107.616 15.9034C107.531 15.8749 107.432 15.8322 107.318 15.7753C107.19 15.7184 107.077 15.6472 106.978 15.5618C106.892 15.4907 106.85 15.4124 106.85 15.327C106.85 15.1705 106.935 15.0353 107.105 14.9214C107.29 14.7933 107.51 14.7293 107.765 14.7293L108.084 14.6226V1.57966L107.765 1.45158C107.751 1.45158 107.694 1.43735 107.595 1.40889C107.51 1.38043 107.417 1.33773 107.318 1.28081C107.205 1.22388 107.098 1.15984 106.999 1.08869C106.899 1.0033 106.85 0.910797 106.85 0.811178C106.85 0.640404 106.935 0.498092 107.105 0.384243C107.29 0.270393 107.51 0.213468 107.765 0.213468H114.83C114.901 0.213468 114.979 0.213468 115.065 0.213468C115.15 0.199237 115.235 0.185006 115.32 0.170775C115.362 0.156543 115.405 0.149427 115.448 0.149427C115.504 0.135196 115.554 0.120965 115.597 0.106734C115.682 0.0925029 115.76 0.0782715 115.831 0.0640396C115.902 0.0498086 115.951 0.0355776 115.98 0.0213465C115.994 0.0213465 116.008 0.0213465 116.022 0.0213465C116.051 0.00711551 116.072 0 116.086 0C116.1 0 116.114 0 116.129 0C116.157 0 116.178 0 116.192 0C116.249 0 116.306 0.00711551 116.363 0.0213465C116.419 0.0213465 116.483 0.028462 116.554 0.0426931C116.725 0.099618 116.888 0.185005 117.044 0.298855C117.214 0.412705 117.335 0.547902 117.406 0.704444L118.363 2.56162C118.392 2.60431 118.413 2.647 118.427 2.6897C118.441 2.73239 118.441 2.77508 118.427 2.81778C118.427 2.93163 118.377 3.04548 118.278 3.15933C118.193 3.25895 118.072 3.3301 117.916 3.3728C117.888 3.38703 117.852 3.40126 117.81 3.41549C117.781 3.41549 117.753 3.41549 117.725 3.41549C117.682 3.42972 117.64 3.43684 117.597 3.43684C117.569 3.43684 117.54 3.43684 117.512 3.43684C117.327 3.43684 117.157 3.40837 117.001 3.35145C116.845 3.28029 116.739 3.19491 116.682 3.09529L115.66 1.45158H114.128L113.937 1.62236V6.48943H115.575C115.561 6.46097 115.554 6.43962 115.554 6.42539C115.554 6.39693 115.554 6.37558 115.554 6.36135C115.554 6.33289 115.554 6.31154 115.554 6.29731C115.568 6.26885 115.575 6.24038 115.575 6.21192C115.604 6.12653 115.653 6.04826 115.724 5.97711C115.809 5.89172 115.895 5.82768 115.98 5.78498C116.036 5.75652 116.086 5.74229 116.129 5.74229C116.185 5.72806 116.242 5.72094 116.299 5.72094C116.327 5.72094 116.356 5.72094 116.384 5.72094C116.412 5.72094 116.441 5.72806 116.469 5.74229C116.583 5.75652 116.689 5.78499 116.788 5.82768C116.888 5.85614 116.973 5.89883 117.044 5.95576C117.1 5.98422 117.143 6.01268 117.171 6.04115C117.2 6.05538 117.221 6.07673 117.235 6.10519L118.64 8.3466C118.654 8.36083 118.661 8.38218 118.661 8.41064C118.675 8.42487 118.682 8.4391 118.682 8.45334C118.697 8.46757 118.704 8.48891 118.704 8.51738C118.704 8.53161 118.704 8.54584 118.704 8.56007C118.704 8.67392 118.654 8.78777 118.555 8.90162C118.47 9.00124 118.335 9.07951 118.15 9.13643C118.122 9.15066 118.087 9.1649 118.044 9.17913C118.016 9.17913 117.987 9.17913 117.959 9.17913C117.916 9.19336 117.874 9.20047 117.831 9.20047C117.803 9.20047 117.774 9.20047 117.746 9.20047C117.562 9.20047 117.391 9.1649 117.235 9.09374C117.093 9.02258 116.987 8.9372 116.916 8.83758L116.427 8.11179C116.341 7.94101 116.192 7.83428 115.98 7.79158C115.781 7.74889 115.476 7.72754 115.065 7.72754H113.937V14.7293H115.533C115.774 14.7293 115.965 14.6866 116.107 14.6012C116.249 14.5158 116.356 14.4162 116.427 14.3024C116.441 14.2881 116.448 14.2739 116.448 14.2597C116.462 14.2454 116.476 14.2312 116.49 14.217L117.214 13.0642C117.285 12.9504 117.398 12.865 117.555 12.8081C117.711 12.7512 117.881 12.7227 118.065 12.7227C118.136 12.7227 118.2 12.7227 118.257 12.7227C118.328 12.7227 118.392 12.7369 118.448 12.7654C118.619 12.8223 118.739 12.9077 118.81 13.0216C118.881 13.1354 118.917 13.2564 118.917 13.3844C118.917 13.4129 118.917 13.4485 118.917 13.4912C118.917 13.5196 118.909 13.5481 118.895 13.5766Z" fill="white"/>
<path d="M135.432 15.3057C135.432 15.4195 135.375 15.5262 135.261 15.6259C135.148 15.7255 135.02 15.8038 134.878 15.8607C134.807 15.8891 134.743 15.9105 134.687 15.9247C134.63 15.9389 134.573 15.9461 134.516 15.9461C133.821 15.9461 133.133 15.9461 132.452 15.9461C131.771 15.9461 131.09 15.9461 130.409 15.9461C129.856 15.9461 129.473 15.7326 129.26 15.3057C129.047 14.893 128.919 14.4304 128.877 13.9181C128.863 13.7616 128.848 13.605 128.834 13.4485C128.834 13.2919 128.834 13.1425 128.834 13.0002C128.834 12.9148 128.834 12.8294 128.834 12.744C128.834 12.6587 128.841 12.5804 128.856 12.5092C128.856 12.4381 128.856 12.374 128.856 12.3171C128.856 12.246 128.856 12.1819 128.856 12.125C128.856 11.5273 128.664 11.143 128.281 10.9723C127.912 10.8015 127.394 10.7232 126.727 10.7374V14.5585L126.961 14.6866C127.203 14.6866 127.415 14.7506 127.6 14.8787C127.784 15.0068 127.877 15.142 127.877 15.2843C127.877 15.4693 127.784 15.6259 127.6 15.7539C127.415 15.882 127.203 15.9461 126.961 15.9461L121.237 15.9674C120.967 15.9532 120.747 15.882 120.577 15.7539C120.407 15.6259 120.322 15.4693 120.322 15.2843C120.322 15.142 120.407 15.0068 120.577 14.8787C120.747 14.7506 120.967 14.6866 121.237 14.6866L121.407 14.5585V1.55832C121.35 1.52985 121.293 1.50139 121.237 1.47293C121.18 1.44447 121.116 1.42312 121.045 1.40889C121.031 1.39466 121.01 1.38754 120.981 1.38754C120.953 1.37331 120.925 1.3662 120.896 1.3662C120.74 1.30927 120.598 1.25235 120.471 1.19542C120.357 1.12427 120.3 0.989069 120.3 0.789832C120.3 0.619057 120.385 0.476745 120.556 0.362895C120.726 0.234815 120.939 0.170775 121.194 0.170775H129.111C130.856 0.170775 132.225 0.704445 133.218 1.77179C134.226 2.83913 134.772 4.0132 134.857 5.29401C134.871 5.36516 134.878 5.43632 134.878 5.50748C134.878 5.5644 134.878 5.62844 134.878 5.6996C134.878 6.73848 134.545 7.69908 133.878 8.58142C133.225 9.46375 132.19 10.033 130.771 10.2892V10.4386L131.686 10.6307C131.771 10.6449 131.856 10.6663 131.941 10.6948C132.041 10.7232 132.14 10.7588 132.239 10.8015C132.722 10.9723 133.169 11.2213 133.58 11.5486C133.992 11.8617 134.233 12.189 134.304 12.5306C134.318 12.559 134.325 12.5875 134.325 12.616C134.325 12.6444 134.325 12.6729 134.325 12.7014C134.325 12.7298 134.318 12.7796 134.304 12.8508C134.304 12.9219 134.304 13.0073 134.304 13.1069C134.304 13.1923 134.297 13.2848 134.282 13.3844C134.282 13.4698 134.282 13.5623 134.282 13.662C134.282 13.6762 134.282 13.6904 134.282 13.7046C134.282 13.7189 134.282 13.7331 134.282 13.7473C134.282 13.975 134.297 14.1814 134.325 14.3664C134.353 14.5514 134.417 14.6581 134.516 14.6866C134.545 14.7008 134.566 14.7151 134.58 14.7293C134.609 14.7293 134.637 14.7293 134.665 14.7293C134.864 14.8005 135.041 14.8787 135.197 14.9641C135.354 15.0495 135.432 15.1562 135.432 15.2843V15.3057ZM128.707 8.64546V2.41219C128.707 2.1418 128.579 1.94256 128.324 1.81448C128.082 1.6864 127.813 1.62236 127.515 1.62236C127.217 1.62236 126.947 1.69351 126.706 1.83582C126.465 1.96391 126.344 2.15603 126.344 2.41219C126.344 2.46911 126.366 2.51892 126.408 2.56162C126.451 2.60431 126.5 2.647 126.557 2.6897C126.557 2.6897 126.557 2.69681 126.557 2.71104C126.571 2.71104 126.578 2.71104 126.578 2.71104C126.649 2.75374 126.706 2.80355 126.749 2.86047C126.805 2.90317 126.834 2.96009 126.834 3.03125V7.96236C126.834 8.01928 126.805 8.07621 126.749 8.13313C126.706 8.19006 126.656 8.23987 126.6 8.28256C126.529 8.32526 126.465 8.37506 126.408 8.43199C126.366 8.47468 126.344 8.53161 126.344 8.60276C126.344 8.87316 126.465 9.07239 126.706 9.20047C126.947 9.31432 127.21 9.37125 127.494 9.37125C127.508 9.37125 127.515 9.37125 127.515 9.37125C127.529 9.37125 127.543 9.37125 127.557 9.37125C127.841 9.35702 128.104 9.28586 128.345 9.15778C128.586 9.0297 128.707 8.85892 128.707 8.64546Z" fill="white"/>
<path d="M58.5282 42.078C58.1338 44.3178 57.0319 46.1001 55.2225 47.4247C53.4131 48.7493 51.3369 49.3995 48.9939 49.3755C48.8315 49.3755 48.6691 49.3755 48.5067 49.3755C48.3675 49.3755 48.2168 49.3634 48.0544 49.3393C47.9616 49.3393 47.8572 49.3273 47.7412 49.3032C47.6484 49.3032 47.544 49.2912 47.428 49.2671C46.2681 49.1467 45.1546 48.9058 44.0875 48.5446C43.0205 48.1833 42.2433 47.5571 41.7562 46.666C41.7098 46.5938 41.675 46.4613 41.6518 46.2686C41.6286 46.0519 41.617 45.8231 41.617 45.5823C41.617 45.3896 41.617 45.2089 41.617 45.0404C41.6402 44.8718 41.6634 44.7393 41.6866 44.643C41.8026 44.2336 42.1505 43.8964 42.7305 43.6315C43.3336 43.3665 43.9716 43.2341 44.6443 43.2341C44.6907 43.2341 44.7371 43.2341 44.7835 43.2341C44.8531 43.2341 44.9111 43.2341 44.9575 43.2341C45.839 43.2822 46.5233 43.5472 47.0105 44.0288C47.4976 44.5105 47.8572 45.0283 48.0892 45.5823C48.1588 45.7508 48.2168 45.9194 48.2632 46.088C48.3095 46.2566 48.3559 46.4131 48.4023 46.5576C48.4719 46.8707 48.5879 47.0995 48.7503 47.244C48.9359 47.3645 49.1447 47.4247 49.3766 47.4247C49.4694 47.4247 49.5622 47.4126 49.655 47.3885C49.771 47.3645 49.8754 47.3404 49.9682 47.3163C50.3626 47.1477 50.7221 46.8587 51.0469 46.4493C51.3949 46.0398 51.5688 45.5943 51.5688 45.1126C51.5456 44.9681 51.5108 44.8357 51.4644 44.7152C51.4412 44.5707 51.4065 44.4383 51.3601 44.3178C51.0585 43.5472 50.5249 42.7885 49.7594 42.0419C48.9939 41.2953 48.1704 40.5608 47.2888 39.8382C46.9641 39.5492 46.6277 39.2723 46.2797 39.0074C45.9318 38.7183 45.607 38.4414 45.3054 38.1765C44.2847 37.3094 43.4612 36.1655 42.8349 34.7445C42.2317 33.2995 41.8954 31.8183 41.8258 30.301C41.8258 30.2288 41.8258 30.1565 41.8258 30.0843C41.8258 29.9879 41.8258 29.9036 41.8258 29.8314C41.8258 27.6157 42.5217 25.6167 43.9136 23.8345C45.3286 22.0523 47.66 21.1612 50.9077 21.1612C51.2789 21.1612 51.6732 21.1973 52.0908 21.2696C52.5315 21.3177 52.9723 21.402 53.4131 21.5225C54.5497 21.8355 55.5936 22.3052 56.5448 22.9314C57.4959 23.5575 57.9714 24.2439 57.9714 24.9905C57.9714 25.5685 57.6699 26.0382 57.0667 26.3994C56.4636 26.7607 55.8024 26.9534 55.0833 26.9775C55.0601 26.9775 55.0253 26.9775 54.9789 26.9775C54.9557 26.9775 54.9325 26.9775 54.9093 26.9775C54.4222 26.9775 53.9698 26.8932 53.5522 26.7246C53.1347 26.556 52.8099 26.279 52.5779 25.8937C52.5083 25.7733 52.4503 25.6528 52.404 25.5324C52.3576 25.3879 52.3228 25.2555 52.2996 25.135C52.2996 25.0869 52.288 25.0507 52.2648 25.0267C52.2648 24.9785 52.2532 24.9303 52.23 24.8822C52.2068 24.7136 52.172 24.557 52.1256 24.4125C52.0792 24.2439 52.0096 24.0994 51.9168 23.979C51.7544 23.7863 51.534 23.6418 51.2557 23.5455C51.0005 23.4492 50.7221 23.401 50.4205 23.401C50.3973 23.401 50.3741 23.401 50.351 23.401C50.351 23.401 50.3394 23.401 50.3162 23.401C49.6666 23.4251 49.1099 23.6539 48.6459 24.0874C48.2052 24.4968 48.24 24.9664 48.7503 25.4963C48.7967 25.5445 48.8431 25.5926 48.8895 25.6408C48.9359 25.689 48.9939 25.7371 49.0635 25.7853C49.945 26.6764 50.8149 27.5314 51.6732 28.3502C52.5315 29.145 53.3435 29.9277 54.109 30.6984C55.4313 32.0953 56.5216 33.5283 57.3799 34.9974C58.2614 36.4424 58.7022 38.1162 58.7022 40.0189C58.7022 40.332 58.6906 40.6691 58.6674 41.0304C58.6442 41.3676 58.5978 41.7168 58.5282 42.078Z" fill="white"/>
<path d="M84.7431 47.533C84.7431 47.8221 84.5923 48.0629 84.2908 48.2556C83.9892 48.4723 83.6412 48.5807 83.2469 48.5807L73.8518 48.6168C73.411 48.5927 73.0514 48.4723 72.7731 48.2556C72.4947 48.0629 72.3555 47.81 72.3555 47.4969C72.3555 47.2561 72.4947 47.0273 72.7731 46.8105C73.0514 46.5938 73.411 46.4854 73.8518 46.4854L74.0257 46.2686V34.0581H69.5022V46.3048L69.8153 46.5215C70.2097 46.5215 70.5577 46.6299 70.8592 46.8467C71.1608 47.0634 71.3116 47.2922 71.3116 47.533C71.3116 47.8461 71.1608 48.099 70.8592 48.2917C70.5577 48.5084 70.2097 48.6168 69.8153 48.6168L60.4202 48.6529C59.9795 48.6289 59.6199 48.5084 59.3415 48.2917C59.0632 48.099 58.924 47.8461 58.924 47.533C58.924 47.2922 59.0632 47.0634 59.3415 46.8467C59.6199 46.6299 59.9795 46.5215 60.4202 46.5215L60.6638 46.3048V24.268L60.3854 24.0513C59.9679 24.0513 59.6083 23.9549 59.3067 23.7623C59.0284 23.5696 58.8892 23.3167 58.8892 23.0036C58.8892 22.7146 59.0284 22.4738 59.3067 22.2811C59.6083 22.0643 59.9679 21.956 60.3854 21.956H69.7805C70.1981 21.956 70.5461 22.0643 70.8244 22.2811C71.126 22.4738 71.2768 22.7146 71.2768 23.0036C71.2768 23.3167 71.126 23.5696 70.8244 23.7623C70.5461 23.9549 70.1981 24.0513 69.7805 24.0513L69.5022 24.268V32.2518H74.0257V24.2319L73.7474 24.0513C73.3762 24.0513 73.0398 23.9549 72.7383 23.7623C72.4367 23.5696 72.2859 23.3167 72.2859 23.0036C72.2859 22.6905 72.4367 22.4376 72.7383 22.245C73.0398 22.0523 73.3762 21.956 73.7474 21.956H83.1425C83.5832 21.956 83.9428 22.0523 84.2212 22.245C84.4995 22.4376 84.6387 22.6905 84.6387 23.0036C84.6387 23.3167 84.4995 23.5696 84.2212 23.7623C83.9428 23.9549 83.5832 24.0513 83.1425 24.0513L82.8989 24.2319V46.2686L83.2469 46.4854C83.6412 46.4854 83.9892 46.5938 84.2908 46.8105C84.5923 47.0273 84.7431 47.2561 84.7431 47.4969V47.533Z" fill="white"/>
<path d="M110.784 35.2503C110.784 39.1037 109.636 42.4032 107.339 45.1487C105.043 47.8943 102.271 49.2671 99.0231 49.2671C95.7522 49.2671 92.9685 47.8943 90.6719 45.1487C88.3753 42.4032 87.227 39.1037 87.227 35.2503C87.227 31.3487 88.3753 28.0251 90.6719 25.2795C92.9685 22.534 95.7522 21.1612 99.0231 21.1612C102.271 21.1612 105.043 22.534 107.339 25.2795C109.636 28.0251 110.784 31.3487 110.784 35.2503ZM101.354 45.51C101.354 45.3896 101.308 45.2932 101.215 45.221C101.146 45.1247 101.064 45.0404 100.972 44.9681C100.856 44.8959 100.751 44.8116 100.659 44.7152C100.589 44.6189 100.554 44.5226 100.554 44.4262V25.0989C100.554 24.6413 100.345 24.3041 99.9278 24.0874C99.5334 23.8706 99.0811 23.7623 98.5707 23.7623C98.5475 23.7623 98.5243 23.7623 98.5011 23.7623C98.5011 23.7623 98.4895 23.7623 98.4663 23.7623C98.0256 23.7863 97.608 23.9068 97.2136 24.1235C96.8425 24.3403 96.6569 24.6654 96.6569 25.0989C96.6569 25.1471 96.6685 25.2073 96.6917 25.2795C96.7149 25.3277 96.7497 25.3759 96.7961 25.424C96.8193 25.4722 96.8541 25.5324 96.9005 25.6047C96.9701 25.6528 97.0281 25.701 97.0745 25.7492C97.1905 25.8455 97.2832 25.9298 97.3528 26.0021C97.4456 26.0743 97.492 26.1104 97.492 26.1104V45.5461C97.492 45.9315 97.6892 46.2325 98.0836 46.4493C98.4779 46.6419 98.9071 46.7503 99.371 46.7744C99.3942 46.7744 99.4058 46.7744 99.4058 46.7744C99.429 46.7744 99.4522 46.7744 99.4754 46.7744C99.9626 46.7744 100.392 46.6781 100.763 46.4854C101.157 46.2686 101.354 45.9435 101.354 45.51Z" fill="white"/>
<path d="M135.667 30.879C135.667 33.3115 134.739 35.4068 132.883 37.1649C131.027 38.9231 128.8 39.8021 126.202 39.8021H122.305V46.2686L122.688 46.4854C123.082 46.4854 123.43 46.5938 123.731 46.8105C124.033 47.0273 124.184 47.2561 124.184 47.4969C124.184 47.81 124.033 48.0749 123.731 48.2917C123.43 48.5084 123.082 48.6168 122.688 48.6168L113.292 48.6529C112.852 48.6289 112.492 48.5084 112.214 48.2917C111.959 48.0749 111.831 47.81 111.831 47.4969C111.831 47.2561 111.959 47.0273 112.214 46.8105C112.492 46.5938 112.852 46.4854 113.292 46.4854L113.606 46.2686V24.268L113.258 24.0513C112.84 24.0513 112.481 23.9549 112.179 23.7623C111.901 23.5455 111.761 23.2806 111.761 22.9675C111.761 22.6785 111.901 22.4256 112.179 22.2088C112.481 21.9921 112.84 21.8837 113.258 21.8837H126.237C128.835 21.8837 131.05 22.7628 132.883 24.5209C134.739 26.279 135.667 28.3984 135.667 30.879ZM125.541 36.2618V25.6769C125.541 25.2193 125.332 24.8822 124.915 24.6654C124.52 24.4486 124.079 24.3403 123.592 24.3403C123.105 24.3403 122.664 24.4607 122.27 24.7015C121.876 24.9183 121.678 25.2434 121.678 25.6769C121.678 25.7733 121.713 25.8576 121.783 25.9298C121.852 26.0021 121.934 26.0743 122.026 26.1466C122.05 26.1466 122.061 26.1466 122.061 26.1466C122.061 26.1466 122.073 26.1586 122.096 26.1827C122.189 26.2549 122.27 26.3272 122.34 26.3994C122.432 26.4717 122.479 26.568 122.479 26.6884V35.1058C122.479 35.2021 122.432 35.2984 122.34 35.3948C122.27 35.4911 122.189 35.5754 122.096 35.6476C121.98 35.7199 121.876 35.8042 121.783 35.9005C121.713 35.9728 121.678 36.0691 121.678 36.1895C121.678 36.6471 121.876 36.9843 122.27 37.2011C122.664 37.3937 123.093 37.4901 123.557 37.4901C123.581 37.4901 123.592 37.4901 123.592 37.4901C123.615 37.4901 123.639 37.4901 123.662 37.4901C124.126 37.466 124.555 37.3456 124.949 37.1288C125.344 36.9121 125.541 36.623 125.541 36.2618Z" fill="white"/>
</svg>
