<?xml version="1.0" encoding="utf-8"?><svg viewBox="0 0 136 50" xmlns="http://www.w3.org/2000/svg" xmlns:xlink="http://www.w3.org/1999/xlink"><style>:root>svg{display:none}:root>svg:target{display:block}</style><svg viewBox="0 0 14 24" id="arrow-next" xmlns="http://www.w3.org/2000/svg"><path d="M2 22l10-10L2 2"/></svg><svg viewBox="0 0 14 24" id="arrow-prev" xmlns="http://www.w3.org/2000/svg"><path d="M12 22L2 12 12 2"/></svg><svg viewBox="0 0 16 45" id="arrow_down" xmlns="http://www.w3.org/2000/svg"><path d="M7.293 44.707a1 1 0 001.414 0l6.364-6.364a1 1 0 00-1.414-1.414L8 42.586l-5.657-5.657A1 1 0 00.93 38.343l6.364 6.364zM7 0v44h2V0H7z"/></svg><svg viewBox="0 0 36 34" id="backet" xmlns="http://www.w3.org/2000/svg"><path fill-rule="evenodd" clip-rule="evenodd" d="M11.145 6.732C12.022 4.014 14.637 2 17.797 2s5.774 2.014 6.65 4.732H11.146zm15.437.254a8.534 8.534 0 00-.057-.254C25.597 2.873 22.041 0 17.797 0c-4.245 0-7.801 2.873-8.73 6.732-.02.084-.039.169-.056.254H.5a.5.5 0 00-.487.616l6.04 25.196a.5.5 0 00.487.384h22.511a.5.5 0 00.486-.384L35.58 7.602a.5.5 0 00-.486-.616h-8.51zm-15.75 1.746H2.021l5.35 22.32a.5.5 0 00.487.383h19.875a.5.5 0 00.486-.383l5.352-22.32h-22.74z"/></svg><svg viewBox="0 0 18 18" id="close" xmlns="http://www.w3.org/2000/svg"><defs><path id="ea" d="M691.485 160.07l-1.414 1.415-7.071-7.071-7.071 7.071-1.414-1.414 7.07-7.071-7.07-7.071 1.414-1.415 7.07 7.071 7.072-7.07 1.414 1.414-7.07 7.07z"/></defs><use xlink:href="#ea" transform="translate(-674 -144)"/></svg><svg viewBox="0 0 24 24" id="facebook" xmlns="http://www.w3.org/2000/svg"><path fill-rule="evenodd" clip-rule="evenodd" d="M10.488 3.788A5.25 5.25 0 0114.2 2.25h2.7a.75.75 0 01.75.75v3.6a.75.75 0 01-.75.75h-2.7a.15.15 0 00-.15.15v1.95h2.85a.75.75 0 01.728.932l-.9 3.6a.75.75 0 01-.728.568h-1.95V21a.75.75 0 01-.75.75H9.7a.75.75 0 01-.75-.75v-6.45H7a.75.75 0 01-.75-.75v-3.6A.75.75 0 017 9.45h1.95V7.5a5.25 5.25 0 011.538-3.712zM14.2 3.75a3.75 3.75 0 00-3.75 3.75v2.7a.75.75 0 01-.75.75H7.75v2.1H9.7a.75.75 0 01.75.75v6.45h2.1V13.8a.75.75 0 01.75-.75h2.114l.525-2.1H13.3a.75.75 0 01-.75-.75V7.5a1.65 1.65 0 011.65-1.65h1.95v-2.1H14.2z"/></svg><svg viewBox="0 0 24 24" id="instagram" xmlns="http://www.w3.org/2000/svg"><path d="M16 7a1 1 0 112 0 1 1 0 01-2 0z"/><path fill-rule="evenodd" clip-rule="evenodd" d="M12 7.25a4.75 4.75 0 100 9.5 4.75 4.75 0 000-9.5zM8.75 12a3.25 3.25 0 116.5 0 3.25 3.25 0 01-6.5 0z"/><path fill-rule="evenodd" clip-rule="evenodd" d="M17.258 2.833a47.721 47.721 0 00-10.516 0c-2.012.225-3.637 1.81-3.873 3.832a45.922 45.922 0 000 10.67c.236 2.022 1.86 3.607 3.873 3.832 3.466.387 7.05.387 10.516 0 2.012-.225 3.637-1.81 3.873-3.832a45.914 45.914 0 000-10.67c-.236-2.022-1.86-3.607-3.873-3.832zm-10.35 1.49a46.22 46.22 0 0110.184 0c1.33.15 2.395 1.199 2.55 2.517a44.421 44.421 0 010 10.32c-.155 1.318-1.22 2.368-2.55 2.516a46.217 46.217 0 01-10.184 0c-1.33-.148-2.395-1.198-2.55-2.516a44.421 44.421 0 010-10.32c.155-1.318 1.22-2.368 2.55-2.516z"/></svg><svg viewBox="0 0 136 50" id="logo" xmlns="http://www.w3.org/2000/svg"><path fill-rule="evenodd" clip-rule="evenodd" d="M14.364 49.337h-4.65c-.31 0-.724 0-1.137-.104H7.44c-.413 0-1.033-.206-1.343-.723-.31-.517-.31-.93-.31-1.343V46.03c0-.31-.104-.62-.207-.93-.31-.517-.62-.62-1.137-.31-.31.207-.62.413-.93.723-.31.31-.723.62-1.343.724-.62.103-1.343-.207-1.653-.724C.103 44.997 0 44.48 0 43.963c.195-4.418.186-8.509.177-12.068-.004-2.101-.009-4.017.03-5.705v-3.1C.168 21.4.173 19.485.177 17.384.186 13.824.195 9.734 0 5.316c.103-.517.207-1.033.517-1.55.31-.517 1.033-.827 1.653-.723.62.103 1.033.413 1.343.723.182.136.323.252.451.357.164.134.305.25.48.366.516.414.826.207 1.136-.31.103-.31.207-.62.207-.93V2.113c0-.414 0-.827.31-1.344.31-.62.93-.723 1.343-.723.285-.071.57-.044.82-.02.113.01.22.02.317.02H21.08c.414 0 .93.207 1.344.723.31.517.31.93.31 1.344v1.136c0 .31 0 .62.103.93.31.517.62.724 1.137.31.31-.103.62-.413.93-.723.31-.31.723-.62 1.343-.723.62-.104 1.343.206 1.653.723.414.517.517 1.033.517 1.55-.251 5.697-.23 10.851-.214 15.076.004.986.007 1.921.007 2.8-.103.518-.103 1.034-.103 1.551.103.517.103 1.033.103 1.55.094 2.05.124 4.437.157 7.084.041 3.223.087 6.831.257 10.69-.104.516-.207 1.033-.517 1.55-.31.516-1.033.826-1.653.723-.62-.103-1.034-.413-1.344-.723-.18-.136-.322-.252-.45-.357-.164-.135-.305-.25-.48-.367-.516-.413-.826-.206-1.136.31-.104.31-.207.62-.207.93v1.137c0 .413 0 .827-.31 1.343-.31.62-.93.724-1.343.724-.285.07-.57.044-.82.02-.114-.01-.22-.02-.317-.02h-5.683zM1.42 29.048c.123 4.176.275 9.345.026 14.915 0 .827.413 1.344.93 1.137.206 0 .516-.207.826-.413l.104-.104c-.31-1.86-.517-10.127-.517-20.047 0-9.61.103-17.67.413-19.84 0-.103-.103-.103-.103-.103-.31-.207-.62-.414-.827-.414-.413-.103-.826.414-.826 1.137.25 5.57.097 10.74-.026 14.915-.03 1.014-.057 1.97-.078 2.859v3.1c.02.888.049 1.844.078 2.858zm25.756-5.958c-.103-4.444-.207-10.85.103-17.67 0-.827-.413-1.344-.826-1.24-.039.019-.08.038-.126.058-.196.09-.449.206-.7.458-.104.103-.31.31-.518.413.207 1.964.414 9.92.414 19.53 0 9.61-.104 17.67-.414 19.634.121.121.242.207.343.278.07.05.131.093.174.136.31.206.62.413.827.413.413.103.826-.413.826-1.137-.31-6.923-.206-13.227-.103-17.773v-3.1zM11.47 44.17l1.24.31c.62.103 1.24.207 1.86.207.62 0 1.344-.104 1.964-.207l1.24-.31c.516-.103.826-.31.723-.31l-.103-.103a.734.734 0 01-.175-.039c-.1-.03-.221-.065-.342-.065-.111-.027-.252-.048-.41-.07-.433-.063-.997-.144-1.45-.446-.31-.31-.62-.62-.723-1.034-.207-.413-.104-.93.206-1.343.466-.544.99-.737 1.398-.887.134-.05.256-.095.359-.146.413-.207.62-.62.723-1.137.104-.517 0-.93-.413-1.24a7.186 7.186 0 00-.508-.447c-.297-.246-.618-.511-.939-.896-.206-.31-.413-.62-.516-1.034 0-.413.103-.93.31-1.24.413-.579.958-.76 1.425-.916.116-.039.228-.076.331-.117.207-.104.517-.207.517-.207v-.103c-.103-.31-.31-.414-.827-.414h-.723c-.413 0-.827-.103-.93-.516v-.827c0-.103.026-.207.052-.31.025-.103.051-.207.051-.31v-.31h-.93c-.516 0-1.033 0-1.55-.103.104.103.104.31.104.413 0 .103.025.207.051.31.026.103.052.207.052.31v.31c0 .073.013.133.025.19.022.103.042.193-.025.327-.104.31-.517.516-.93.516h-.723c-.414 0-.724.104-.827.414-.104.103 0 .103 0 .103s.207.103.516.207c.104.041.215.078.332.117.466.156 1.012.337 1.425.916.31.31.413.827.31 1.24-.103.413-.31.724-.517 1.034-.32.385-.642.65-.938.896-.18.149-.352.29-.508.447-.31.31-.517.723-.413 1.24 0 .516.31.93.723 1.136.103.052.224.097.36.147.406.15.93.343 1.396.887.31.413.31.93.207 1.343a1.895 1.895 0 01-.723 1.034c-.62.516-1.447.516-1.86.516-.31 0-.414 0-.517.104-.103 0-.103.103-.103.103s.31.207.723.31zm.308-38.266c.432.062.995.143 1.449.445.31.207.62.517.723.93.104.414.104.93 0 1.447-.466.544-.99.737-1.397.887-.135.05-.257.095-.36.146-.413.207-.62.62-.723 1.137-.103.517 0 .93.413 1.24.157.157.328.298.509.448.296.245.617.51.938.896.207.31.413.62.517 1.033 0 .413-.104.93-.31 1.24-.414.578-.96.76-1.425.916a5.98 5.98 0 00-.332.117c-.207.104-.516.207-.516.207v.103c.103.31.31.413.826.413h.723c.414 0 .827.104.93.517v.827c0 .103-.025.206-.051.31a1.293 1.293 0 00-.052.31c-.103.207-.103.31-.103.517.516-.104 1.033-.104 1.55-.104h.93c-.103-.103-.103-.31-.103-.413 0-.103-.026-.207-.052-.31-.026-.104-.052-.207-.052-.31v-.31a.855.855 0 00-.025-.19c-.022-.103-.042-.193.025-.327.104-.31.517-.517.93-.517h.724c.413 0 .723-.103.826-.413.104-.103 0-.103 0-.103s-.206-.103-.516-.207a5.98 5.98 0 00-.332-.117c-.466-.156-1.012-.338-1.425-.916-.31-.31-.413-.827-.31-1.24.103-.413.31-.723.517-1.034.32-.385.642-.65.938-.895.18-.15.352-.291.508-.448.31-.31.517-.723.414-1.24 0-.517-.31-.93-.724-1.137-.102-.051-.224-.096-.36-.146-.406-.15-.93-.343-1.396-.887-.31-.413-.31-.93-.207-1.343.103-.414.413-.827.723-1.034.62-.516 1.447-.516 1.86-.516.31 0 .414 0 .517-.104.103 0 .103-.103.103-.103s-.31-.207-.723-.31l-1.24-.31-.27-.04c-.61-.088-1.152-.167-1.693-.167-.62 0-1.344.104-1.964.207l-1.24.31c-.517.103-.827.31-.723.31l.103.103c.043 0 .104.018.174.039.1.03.222.065.343.065.11.027.252.048.41.07zm9.175 20.104c-.275.58-.797 1.074-1.32 1.422-1.184.79-2.464 1.108-3.297 1.315l-.112.028c-.374.093-.684.145-.912.182-.277.046-.432.071-.432.128 0-.103-.516-.207-1.55-.31-.036-.01-.074-.018-.113-.028-.832-.207-2.112-.525-3.297-1.315-.517-.414-1.137-1.034-1.447-1.757-.31-.723-.206-1.653.414-2.377 1.24-1.55 3.617-2.273 5.89-2.273l.103.005.104-.005c2.273 0 4.65.723 5.89 2.273.413.62.62 1.55.31 2.274-.065.15-.143.297-.23.438z"/><path d="M52.79 6.724c1.461.3 2.554.883 3.277 1.75.724.855 1.1 1.765 1.128 2.733v.086c-.014 1.166-.518 2.234-1.51 3.202-.98.967-2.42 1.451-4.321 1.451l-8.853.021c-.284-.014-.504-.078-.66-.192-.142-.114-.22-.242-.234-.384v-.043-.021c0-.142.078-.277.234-.406.17-.142.412-.213.724-.213l.17-.15V1.453c-.312 0-.56-.064-.745-.193-.17-.128-.27-.27-.298-.426-.014-.015-.021-.029-.021-.043V.726c0-.143.064-.263.191-.363.142-.114.348-.17.617-.17h9.407c1.56 0 2.745.348 3.554 1.045.809.683 1.213 1.445 1.213 2.284 0 .726-.32 1.402-.958 2.028-.638.612-1.61 1.003-2.915 1.174zm-2.15 7.194V8.347c0-.27-.127-.47-.383-.598a1.697 1.697 0 00-.808-.192c-.298 0-.568.07-.81.213-.24.128-.36.32-.36.577 0 .057.02.106.063.149s.092.085.149.128v.021h.021a.586.586 0 01.17.15c.057.043.086.1.086.17v4.291c0 .057-.029.114-.086.171a.74.74 0 01-.149.15c-.014 0-.028.007-.042.02a1.38 1.38 0 00-.149.129.205.205 0 00-.064.15c0 .27.12.47.362.597.241.114.504.17.787.17h.064c.284-.013.546-.085.788-.213.24-.128.361-.298.361-.512zm0-8.453V2.263c0-.27-.127-.47-.383-.598a1.697 1.697 0 00-.808-.192c-.298 0-.568.071-.81.213-.24.128-.36.32-.36.577 0 .057.02.107.063.15.043.042.092.085.149.127h.021l.021.022c.057.042.107.085.15.128.056.042.085.1.085.17v1.943a.205.205 0 01-.064.15 1.4 1.4 0 01-.15.128l-.02.02a.99.99 0 00-.192.15.231.231 0 00-.064.171c0 .27.12.47.362.598.241.114.504.17.787.17h.064c.284-.014.546-.085.788-.213.24-.128.361-.299.361-.512zM73.703 15.348c0 .143-.092.27-.277.385-.17.128-.361.199-.574.213h-.043-.021l-6.257.021c0-.014-.05-.042-.149-.085a8.466 8.466 0 01-.298-.107 1.38 1.38 0 01-.34-.213c-.085-.071-.128-.15-.128-.235 0-.156.085-.292.255-.406.185-.128.405-.192.66-.192h.51l-.446-1.9h-3.788l-.49 1.9h.511c.241 0 .454.057.639.171.184.114.276.256.276.427 0 .157-.092.299-.276.427a1.092 1.092 0 01-.639.192l-3.213.021-.192-.064a.947.947 0 01-.234-.085 1.38 1.38 0 01-.34-.213c-.1-.086-.15-.178-.15-.278 0-.17.093-.313.277-.427a1.19 1.19 0 01.639-.17h.532l3.362-13.321h-.787a1.23 1.23 0 01-.66-.17c-.17-.129-.255-.278-.255-.45 0-.17.085-.312.255-.426a1.23 1.23 0 01.66-.17h5.767c.255 0 .468.056.638.17.185.114.277.256.277.427l3.192 13.94h.192c.255 0 .468.063.638.191.185.114.277.25.277.406v.021zm-7.385-3.65l-1.234-5.4a.264.264 0 00-.128-.193.31.31 0 00-.191-.064h-.043l-.021.021a.479.479 0 00-.17.086.317.317 0 00-.086.15l-1.361 5.4h3.234z"/><path d="M88.38 15.306c0 .114-.057.22-.171.32-.114.1-.241.178-.383.235a1.51 1.51 0 01-.192.064.7.7 0 01-.17.021h-4.107c-.554 0-.937-.213-1.15-.64a3.656 3.656 0 01-.382-1.388l-.043-.47V13v-.256c0-.085.007-.164.021-.235v-.192-.192c0-.598-.191-.982-.574-1.153-.37-.17-.887-.249-1.554-.235v3.822l.234.128c.241 0 .454.064.639.192.184.128.276.263.276.405 0 .185-.092.342-.276.47a1.092 1.092 0 01-.639.192l-5.725.021c-.27-.014-.49-.085-.66-.213-.17-.128-.255-.285-.255-.47 0-.142.085-.277.256-.405.17-.128.39-.192.66-.192l.17-.128v-13c-.057-.03-.114-.058-.17-.086a.758.758 0 00-.192-.064c-.014-.014-.036-.021-.064-.021a.189.189 0 00-.085-.022 6.622 6.622 0 01-.426-.17c-.113-.072-.17-.207-.17-.406 0-.17.085-.313.255-.427.17-.128.383-.192.639-.192h7.917c1.745 0 3.114.533 4.107 1.6 1.007 1.068 1.553 2.242 1.639 3.523.014.071.02.142.02.213V5.7c0 1.038-.332 2-1 2.881-.652.883-1.688 1.452-3.106 1.708v.15l.915.192c.085.014.17.035.255.064.1.028.199.064.298.107.482.17.93.42 1.34.747.412.313.653.64.724.982a.19.19 0 01.022.085v.085a.903.903 0 01-.022.15v.256c0 .085-.007.178-.021.277v.363c0 .228.014.434.043.62.028.184.092.291.191.32.029.014.05.028.064.042h.085c.199.072.376.15.532.235.156.085.234.192.234.32v.022zm-6.726-6.66V2.411c0-.27-.127-.47-.383-.598a1.697 1.697 0 00-.809-.192c-.297 0-.567.072-.808.214-.241.128-.362.32-.362.576 0 .057.021.107.064.15.042.042.092.085.149.128v.021h.021c.071.043.128.093.17.15.057.042.085.1.085.17v4.931c0 .057-.028.114-.085.171a.742.742 0 01-.149.15.992.992 0 00-.191.149.231.231 0 00-.064.17c0 .271.12.47.362.598.24.114.503.171.787.171h.064c.284-.014.546-.085.787-.213.242-.128.362-.3.362-.513zM101.089 6.724c1.462.3 2.554.883 3.278 1.75.723.855 1.099 1.765 1.127 2.733v.086c-.014 1.166-.517 2.234-1.511 3.202-.978.967-2.419 1.451-4.32 1.451l-8.853.021c-.284-.014-.504-.078-.66-.192-.142-.114-.22-.242-.234-.384v-.043-.021c0-.142.078-.277.234-.406.17-.142.412-.213.724-.213l.17-.15V1.453c-.312 0-.56-.064-.745-.193-.17-.128-.27-.27-.298-.426-.014-.015-.02-.029-.02-.043V.726c0-.143.063-.263.19-.363.143-.114.348-.17.618-.17h9.406c1.561 0 2.746.348 3.554 1.045.809.683 1.213 1.445 1.213 2.284 0 .726-.319 1.402-.957 2.028-.639.612-1.611 1.003-2.916 1.174zm-2.15 7.194V8.347c0-.27-.127-.47-.382-.598a1.697 1.697 0 00-.809-.192c-.298 0-.568.07-.809.213-.24.128-.361.32-.361.577 0 .057.02.106.063.149s.093.085.15.128v.021h.02c.071.043.128.093.17.15.058.043.086.1.086.17v4.291c0 .057-.028.114-.085.171a.74.74 0 01-.15.15c-.013 0-.027.007-.042.02a1.39 1.39 0 00-.149.129.205.205 0 00-.064.15c0 .27.121.47.362.597.241.114.504.17.788.17h.063c.284-.013.547-.085.788-.213s.362-.298.362-.512zm0-8.453V2.263c0-.27-.127-.47-.382-.598a1.697 1.697 0 00-.809-.192c-.298 0-.568.071-.809.213-.24.128-.361.32-.361.577 0 .057.02.107.063.15.043.042.093.085.15.127h.02l.022.022c.057.042.106.085.149.128.057.042.085.1.085.17v1.943a.205.205 0 01-.064.15 1.39 1.39 0 01-.149.128l-.021.02a.992.992 0 00-.192.15.231.231 0 00-.064.171c0 .27.121.47.362.598.241.114.504.17.788.17h.063c.284-.014.547-.085.788-.213s.362-.299.362-.512zM118.895 13.577l-.404 1.771a.992.992 0 00-.043.107.48.48 0 01-.021.15 1.164 1.164 0 01-.277.427c-.127.128-.312.192-.553.192-.128 0-.248-.008-.362-.022a2.118 2.118 0 01-.319-.064l-.085-.043h-.085a26.264 26.264 0 00-.447-.085 2.766 2.766 0 00-.532-.043l-8.002.022c0-.014-.05-.043-.149-.086a2.38 2.38 0 01-.298-.128 1.365 1.365 0 01-.34-.213c-.086-.071-.128-.15-.128-.235 0-.156.085-.292.255-.406a1.13 1.13 0 01.66-.192l.319-.106V1.58l-.319-.128a1.269 1.269 0 01-.447-.171 2.386 2.386 0 01-.319-.192c-.1-.086-.149-.178-.149-.278 0-.17.085-.313.255-.427.185-.114.405-.17.66-.17H115.065l.255-.043a.398.398 0 01.128-.022c.056-.014.106-.028.149-.042a7.49 7.49 0 00.234-.043.668.668 0 00.149-.043h.042a.168.168 0 01.064-.021h.106c.057 0 .114.007.171.021.056 0 .12.007.191.022.171.057.334.142.49.256a.98.98 0 01.362.405l.957 1.858c.029.042.05.085.064.128a.2.2 0 010 .128c0 .114-.05.227-.149.341a.706.706 0 01-.362.214.827.827 0 01-.106.042h-.085a.402.402 0 01-.128.022h-.085c-.185 0-.355-.029-.511-.086-.156-.07-.262-.156-.319-.256l-1.022-1.643h-1.532l-.191.17V6.49h1.638a.166.166 0 01-.021-.064v-.064-.064a.192.192 0 00.021-.085.606.606 0 01.149-.235c.085-.085.171-.15.256-.192a.338.338 0 01.149-.043.69.69 0 01.17-.021h.085c.028 0 .057.007.085.021.114.015.22.043.319.086.1.028.185.07.256.128a.496.496 0 01.127.085c.029.014.05.036.064.064l1.405 2.242c.014.014.021.035.021.064.014.014.021.028.021.042.015.015.022.036.022.064v.043c0 .114-.05.228-.149.342-.085.1-.22.178-.405.234a.771.771 0 01-.106.043h-.085a.402.402 0 01-.128.021h-.085c-.184 0-.355-.035-.511-.106a.846.846 0 01-.319-.256l-.489-.726c-.086-.171-.235-.278-.447-.32-.199-.043-.504-.064-.915-.064h-1.128v7.001h1.596c.241 0 .432-.042.574-.128a.933.933 0 00.32-.299c.014-.014.021-.028.021-.042l.042-.043.724-1.153a.64.64 0 01.341-.256c.156-.057.326-.085.51-.085h.192c.071 0 .135.014.191.042.171.057.291.143.362.257a.675.675 0 01.107.362v.107a.194.194 0 01-.022.086zM135.432 15.306c0 .114-.057.22-.171.32-.113.1-.241.178-.383.235-.071.028-.135.05-.191.064a.705.705 0 01-.171.021h-4.107c-.553 0-.936-.213-1.149-.64a3.643 3.643 0 01-.383-1.388l-.043-.47V13v-.256c0-.085.007-.164.022-.235v-.192-.192c0-.598-.192-.982-.575-1.153-.369-.17-.887-.249-1.554-.235v3.822l.234.128c.242 0 .454.064.639.192.184.128.277.263.277.405 0 .185-.093.342-.277.47a1.093 1.093 0 01-.639.192l-5.724.021c-.27-.014-.49-.085-.66-.213-.17-.128-.255-.285-.255-.47 0-.142.085-.277.255-.405.17-.128.39-.192.66-.192l.17-.128v-13c-.057-.03-.114-.058-.17-.086a.764.764 0 00-.192-.064c-.014-.014-.035-.021-.064-.021a.185.185 0 00-.085-.022 6.457 6.457 0 01-.425-.17c-.114-.072-.171-.207-.171-.406 0-.17.085-.313.256-.427a1.03 1.03 0 01.638-.192h7.917c1.745 0 3.114.533 4.107 1.6 1.008 1.068 1.554 2.242 1.639 3.523.014.071.021.142.021.213V5.7c0 1.038-.333 2-1 2.881-.653.883-1.688 1.452-3.107 1.708v.15l.915.192c.085.014.17.035.255.064.1.028.199.064.298.107.483.17.93.42 1.341.747.412.313.653.64.724.982a.192.192 0 01.021.085v.085a.915.915 0 01-.021.15v.256c0 .085-.007.178-.022.277v.363c0 .228.015.434.043.62.028.184.092.291.191.32.029.014.05.028.064.042h.085c.199.072.376.15.532.235.157.085.235.192.235.32v.022zm-6.725-6.66V2.411c0-.27-.128-.47-.383-.598a1.7 1.7 0 00-.809-.192c-.298 0-.568.072-.809.214-.241.128-.362.32-.362.576 0 .057.022.107.064.15.043.042.092.085.149.128v.021h.021a.595.595 0 01.171.15c.056.042.085.1.085.17v4.931c0 .057-.029.114-.085.171a.774.774 0 01-.149.15.999.999 0 00-.192.149.234.234 0 00-.064.17c0 .271.121.47.362.598.241.114.504.171.788.171h.063c.284-.014.547-.085.788-.213s.362-.3.362-.513zM58.528 42.078c-.394 2.24-1.496 4.022-3.306 5.347-1.809 1.324-3.885 1.975-6.228 1.95h-.487c-.14 0-.29-.012-.453-.036-.092 0-.197-.012-.313-.036-.093 0-.197-.012-.313-.036a15.317 15.317 0 01-3.34-.722c-1.068-.362-1.845-.988-2.332-1.879-.046-.072-.081-.205-.104-.397a6.454 6.454 0 01-.035-.687v-.542c.023-.168.046-.3.07-.397.116-.41.464-.747 1.044-1.011a4.706 4.706 0 011.913-.398h.314c.881.048 1.565.313 2.053.795.487.481.846 1 1.078 1.553.07.169.128.337.174.506.047.169.093.325.14.47.069.313.185.541.347.686a1.125 1.125 0 00.905.145 6.47 6.47 0 00.313-.073c.395-.168.754-.457 1.079-.867.348-.41.522-.855.522-1.336a1.975 1.975 0 00-.105-.398 1.975 1.975 0 00-.104-.397c-.301-.77-.835-1.53-1.6-2.276a38.387 38.387 0 00-2.471-2.204 17.05 17.05 0 00-1.01-.83c-.347-.29-.672-.567-.974-.832-1.02-.867-1.844-2.01-2.47-3.431a13.003 13.003 0 01-1.01-4.444v-.217-.253c0-2.215.697-4.214 2.089-5.997 1.415-1.782 3.746-2.673 6.994-2.673.37 0 .765.036 1.183.109.44.048.881.132 1.322.253 1.137.313 2.18.782 3.132 1.408.95.627 1.426 1.313 1.426 2.06 0 .578-.301 1.047-.904 1.408a4.06 4.06 0 01-1.984.578h-.174c-.487 0-.94-.084-1.357-.252a1.97 1.97 0 01-.974-.831c-.07-.12-.128-.241-.174-.362a3.437 3.437 0 01-.104-.397c0-.048-.012-.084-.035-.108a.33.33 0 00-.035-.145 2.771 2.771 0 00-.104-.47 1.24 1.24 0 00-.21-.433 1.47 1.47 0 00-.66-.433 2.347 2.347 0 00-.836-.145h-.069-.035a2.504 2.504 0 00-1.67.686c-.44.41-.406.88.104 1.41l.14.144c.046.048.104.096.173.144.882.891 1.752 1.746 2.61 2.565.858.795 1.67 1.578 2.436 2.348 1.322 1.397 2.413 2.83 3.27 4.3.882 1.444 1.323 3.118 1.323 5.02 0 .314-.011.651-.035 1.012-.023.338-.07.687-.139 1.048zM84.743 47.533c0 .29-.15.53-.452.723-.302.216-.65.325-1.044.325l-9.395.036c-.441-.024-.8-.145-1.079-.361-.278-.193-.417-.446-.417-.76 0-.24.139-.469.417-.686.278-.216.638-.325 1.079-.325l.174-.216v-12.21h-4.524v12.246l.313.217c.395 0 .743.108 1.044.325.302.216.453.445.453.686 0 .313-.151.566-.453.759-.301.216-.65.325-1.044.325l-9.395.036c-.44-.024-.8-.145-1.078-.361-.279-.193-.418-.446-.418-.759 0-.24.14-.47.418-.686.278-.217.638-.325 1.078-.325l.244-.217V24.268l-.279-.217c-.417 0-.777-.096-1.078-.289-.279-.192-.418-.445-.418-.758 0-.29.14-.53.418-.723.301-.217.66-.325 1.078-.325h9.396c.417 0 .765.108 1.043.325.302.193.453.434.453.723 0 .313-.151.566-.453.758-.278.193-.626.29-1.043.29l-.279.216v7.984h4.524v-8.02l-.279-.18c-.37 0-.707-.097-1.009-.29-.301-.192-.452-.445-.452-.758 0-.314.15-.566.452-.759a1.835 1.835 0 011.01-.289h9.394c.441 0 .8.096 1.08.289.278.193.417.445.417.759 0 .313-.14.566-.418.758-.278.193-.638.29-1.079.29l-.243.18v22.037l.348.216c.394 0 .742.109 1.044.325.301.217.452.446.452.687v.036zM110.784 35.25c0 3.854-1.148 7.153-3.445 9.899-2.296 2.745-5.068 4.118-8.316 4.118-3.27 0-6.054-1.373-8.351-4.118-2.297-2.746-3.445-6.045-3.445-9.899 0-3.901 1.148-7.225 3.445-9.97 2.297-2.746 5.08-4.119 8.351-4.119 3.248 0 6.02 1.373 8.316 4.118 2.297 2.746 3.445 6.07 3.445 9.971zm-9.43 10.26a.347.347 0 00-.139-.289 1.24 1.24 0 00-.243-.253 1.598 1.598 0 01-.313-.253.49.49 0 01-.105-.289V25.1c0-.458-.209-.795-.626-1.012-.395-.216-.847-.325-1.357-.325h-.07-.035c-.44.024-.858.145-1.252.361-.371.217-.557.542-.557.976 0 .048.011.108.035.18a.563.563 0 00.104.145c.023.048.058.108.104.18.07.049.128.097.174.145.117.097.21.18.279.253l.139.108v19.436c0 .386.197.687.592.903a3.29 3.29 0 001.287.325H99.476c.487 0 .916-.096 1.287-.289.394-.216.591-.541.591-.975zM135.667 30.879c0 2.433-.928 4.528-2.784 6.286-1.856 1.758-4.083 2.637-6.681 2.637h-3.897v6.467l.383.216c.394 0 .742.109 1.043.325.302.217.453.446.453.687 0 .313-.151.578-.453.795a1.74 1.74 0 01-1.043.325l-9.396.036c-.44-.024-.8-.145-1.078-.361a1.006 1.006 0 01-.383-.795c0-.24.128-.47.383-.687.278-.216.638-.325 1.078-.325l.314-.216V24.268l-.348-.217c-.418 0-.777-.096-1.079-.289-.278-.216-.418-.481-.418-.794 0-.29.14-.542.418-.76.302-.216.661-.324 1.079-.324h12.979c2.598 0 4.813.879 6.646 2.637 1.856 1.758 2.784 3.877 2.784 6.358zm-10.126 5.383V25.677c0-.458-.209-.795-.626-1.012a2.704 2.704 0 00-1.323-.325c-.487 0-.928.12-1.322.361-.394.217-.592.542-.592.976 0 .096.035.18.105.253.069.072.151.144.243.217h.035l.035.036c.093.072.174.144.244.216a.35.35 0 01.139.29v8.417c0 .096-.047.192-.139.289-.07.096-.151.18-.244.253-.116.072-.22.156-.313.252a.398.398 0 00-.105.29c0 .457.198.794.592 1.011a2.89 2.89 0 001.287.29H123.662a2.952 2.952 0 001.287-.362c.395-.217.592-.506.592-.867z"/></svg><svg viewBox="0 0 13 24" id="p-left" xmlns="http://www.w3.org/2000/svg"><path fill-rule="evenodd" d="M1.453 12l11.535 11.284-.721.705L.732 12.705.011 12l.721-.705L12.267.01l.721.705L1.453 12z"/></svg><svg viewBox="0 0 14 25" id="p-right" xmlns="http://www.w3.org/2000/svg"><path fill-rule="evenodd" d="M12.107 12.5L.793 1.186 1.5.479l11.314 11.314.707.707-.707.707L1.5 24.521l-.707-.707L12.107 12.5z"/></svg><svg viewBox="0 0 24 24" id="search" xmlns="http://www.w3.org/2000/svg"><path d="M23.341 20.159l-5.506-5.507a10.58 10.58 0 01-3.182 3.183l5.506 5.506a2.25 2.25 0 103.182-3.182zM18 9a9 9 0 10-18.002.001 9 9 0 0018.002 0zm-9 6.75A6.757 6.757 0 012.25 9 6.757 6.757 0 019 2.25 6.758 6.758 0 0115.75 9 6.758 6.758 0 019 15.75z"/></svg><svg viewBox="0 0 49 49" id="youtube" xmlns="http://www.w3.org/2000/svg"><path d="M39.256 6.5H9.744C4.371 6.5 0 10.885 0 16.274v16.451c0 5.39 4.371 9.774 9.744 9.774h29.512c5.373 0 9.744-4.385 9.744-9.774V16.274c0-5.389-4.371-9.774-9.744-9.774zM47 32.726c0 4.287-3.474 7.774-7.744 7.774H9.744C5.474 40.5 2 37.012 2 32.726V16.274C2 11.988 5.474 8.5 9.744 8.5h29.512c4.27 0 7.744 3.488 7.744 7.774v16.452z"/><path d="M33.36 24.138l-13.855-8.115a1.002 1.002 0 00-1.505.863v16.229a1.002 1.002 0 001 1 1 1 0 00.505-.137l13.855-8.113a1 1 0 000-1.727zM20 31.37V18.63l10.876 6.371L20 31.37z"/></svg></svg>